<?xml version="1.0" encoding="utf-8"?>
<!-- Generator: Adobe Illustrator 26.0.3, SVG Export Plug-In . SVG Version: 6.00 Build 0)  -->
<svg version="1.1"
	 id="Camada_1" text-rendering="geometricPrecision" image-rendering="optimizeQuality" shape-rendering="geometricPrecision"
	 xmlns="http://www.w3.org/2000/svg" xmlns:xlink="http://www.w3.org/1999/xlink" x="0px" y="0px" viewBox="0 0 143.3 151.1"
	 style="enable-background:new 0 0 143.3 151.1;" xml:space="preserve">
<style type="text/css">
	.st0{fill:#FFFFFF;}
	.st1{fill:#771E20;}
</style>
<g>
	<path class="st0" d="M17.6,129.2c-0.1-0.1-0.2-0.2-0.4-0.2c-0.1,0-0.1,0-0.2,0h-3.3c-0.3,0-0.6,0.2-0.6,0.4L9.4,141l-0.3,1.1
		L8.8,141l-4-11.6c-0.1-0.3-0.3-0.4-0.6-0.4H0.8c-0.2,0-0.3,0.1-0.4,0.2s-0.1,0.2,0,0.5l6.1,16c0.5,1.2,1.3,1.9,2.6,1.9h0.1
		c1.2,0,2.1-0.6,2.5-1.8l6-16C17.7,129.4,17.7,129.2,17.6,129.2z M29.8,130.3c-1.3-1-3.1-1.5-5.3-1.5c-2.3,0-4.4,0.5-6.2,1.5
		c-0.2,0.1-0.3,0.2-0.3,0.3c0,0.2,0,0.3,0.1,0.4l1.1,2.2c0.1,0.3,0.3,0.3,0.4,0.3c0.1,0,0.3-0.1,0.4-0.1c1.2-0.7,2.6-1.1,4.4-1.1
		c2.2,0,3.3,0.9,3.3,2.7v0.8c-1-0.4-2.4-0.6-4.1-0.6c-2,0-3.8,0.5-5.1,1.4c-1.5,1.1-2.2,2.6-2.2,4.5c0,2,0.7,3.5,2.2,4.5
		c1.2,0.9,2.9,1.3,4.8,1.3h5.9c0.8,0,1.4-0.2,1.9-0.7s0.8-1.2,0.8-2v-9.5C31.8,132.9,31.1,131.3,29.8,130.3z M27.6,139.6v4h-3.9
		c-2.2,0-3.3-0.8-3.3-2.4c0-1.5,1.1-2.2,3.4-2.2C25.4,138.9,26.7,139.2,27.6,139.6z M46,138c-0.8-0.7-2.2-1.3-4.3-1.9
		c-1.6-0.5-2.6-0.9-3.1-1.2c-0.5-0.3-0.7-0.7-0.7-1.2c0-0.3,0-1.4,2.5-1.4c1.6,0,3,0.5,4,1.4c0.1,0.1,0.2,0.1,0.3,0.1
		c0.2,0,0.3-0.1,0.4-0.2l0,0l1.8-1.8c0.1-0.1,0.2-0.3,0-0.7c-1.2-1.6-3.4-2.5-6.5-2.5c-2,0-3.6,0.4-4.8,1.3c-1.3,0.9-2,2.2-2,3.8
		s0.6,2.9,1.7,3.9c1,0.8,2.6,1.6,4.8,2.2c1.3,0.4,2.2,0.7,2.6,1c0.6,0.3,0.8,0.7,0.8,1.3s-0.3,1-0.8,1.2c-0.6,0.3-1.3,0.5-2.2,0.5
		c-2.1,0-3.8-0.6-5-1.9c-0.1-0.2-0.3-0.2-0.4-0.2c-0.1,0-0.3,0.1-0.4,0.2l-1.9,2.1c0,0,0,0,0,0.1c-0.1,0.2-0.1,0.4,0.1,0.6
		c1.7,1.8,4.1,2.7,7.4,2.7c2,0,3.7-0.4,5.1-1.3c1.5-1,2.2-2.4,2.2-4.2C47.6,140.3,47.1,139,46,138z M61.1,138
		c-0.9-0.7-2.3-1.3-4.3-1.9c-1.6-0.5-2.7-0.9-3.2-1.2c-0.5-0.3-0.7-0.7-0.7-1.2c0-0.3,0-1.4,2.5-1.4c1.6,0,3,0.5,4,1.4
		c0.1,0.1,0.2,0.1,0.3,0.1c0.2,0,0.3-0.1,0.4-0.2l0,0l1.8-1.8c0.1-0.1,0.3-0.3,0-0.7c-1.3-1.6-3.4-2.5-6.5-2.5c-2,0-3.6,0.4-4.8,1.3
		c-1.3,0.9-2,2.2-2,3.8s0.6,2.9,1.7,3.9c1,0.8,2.6,1.6,4.8,2.2c1.4,0.4,2.2,0.7,2.6,1c0.6,0.3,0.8,0.7,0.8,1.3s-0.3,1-0.8,1.2
		c-0.6,0.3-1.3,0.5-2.2,0.5c-2.1,0-3.8-0.6-5-1.9c-0.1-0.1-0.3-0.2-0.3-0.2c-0.1,0-0.3,0.1-0.4,0.2l-1.9,2.1c0,0,0,0,0,0.1
		c-0.1,0.3,0.1,0.5,0.1,0.6c1.7,1.8,4.1,2.7,7.4,2.7c2,0,3.8-0.4,5.1-1.3c1.5-1,2.2-2.4,2.2-4.2C62.7,140.3,62.2,139,61.1,138z
		 M72,128.5c-2.5,0-4.6,0.8-6.2,2.5c-1.7,1.8-2.5,4.1-2.5,7c0,2.8,0.9,5.2,2.6,7c1.6,1.6,3.6,2.5,6,2.5c2.6,0,4.7-0.9,6.4-2.5
		c1.7-1.8,2.6-4.1,2.6-7s-0.9-5.2-2.6-6.9C76.5,129.4,74.4,128.5,72,128.5z M68.7,133.8c0.8-0.9,1.9-1.4,3.2-1.4
		c1.4,0,2.5,0.5,3.3,1.4l0,0c0.9,1,1.4,2.4,1.4,4.2c0,1.9-0.4,3.3-1.4,4.3c-0.9,0.9-1.9,1.4-3.3,1.4c-1.2,0-2.3-0.5-3.1-1.4
		c-0.9-1-1.4-2.4-1.4-4.3C67.4,136.2,67.8,134.7,68.7,133.8z M96.3,129c-0.1,0-0.1,0-0.2,0H93c-0.3,0-0.5,0.2-0.5,0.5v10.6
		c0,1.2-0.2,2.1-0.7,2.6c-0.5,0.6-1.4,0.9-2.6,0.9c-2.2,0-3.3-1.1-3.3-3.4v-10.7c0-0.4-0.3-0.6-0.5-0.6h-3.1c-0.3,0-0.6,0.2-0.6,0.6
		v11.1c0,2.2,0.7,3.9,2,5c1.3,1.1,3.2,1.7,5.5,1.7c2.3,0,4.2-0.6,5.5-1.7c1.4-1.2,2.1-2.9,2.1-5.1v-11C96.7,129.2,96.5,129,96.3,129
		z M108.5,140.1c1.2-0.3,2.1-1,2.9-1.9c0.8-1,1.2-2.3,1.2-3.7c0-1.9-0.7-3.3-2-4.3c-1.1-0.8-2.6-1.2-4.3-1.2h-6.1
		c-1.4,0-2.1,0.7-2.1,2.1v15.5c0,0.4,0.2,0.5,0.4,0.5h3.2c0.3,0,0.4-0.2,0.4-0.5v-6h2l4.8,6.3c0.1,0.2,0.2,0.3,0.4,0.3h3.6
		c0.2,0,0.3-0.1,0.4-0.2c0.1-0.1,0.1-0.2,0-0.5L108.5,140.1z M108.6,134.7c0,0.8-0.2,1.4-0.7,1.7c-0.5,0.3-1.3,0.5-2.4,0.5h-3.3
		v-4.3h3.5C107.6,132.6,108.6,133.3,108.6,134.7z"/>
	<path class="st0" d="M125.5,130.3c-1.3-1-3.1-1.5-5.3-1.5c-2.3,0-4.4,0.5-6.2,1.5c-0.2,0.1-0.3,0.2-0.3,0.3c0,0.2,0,0.3,0.1,0.4
		l1.1,2.2c0.1,0.3,0.3,0.3,0.5,0.3c0.1,0,0.2-0.1,0.3-0.1c1.2-0.7,2.6-1.1,4.4-1.1c2.2,0,3.3,0.9,3.3,2.7v0.8
		c-1-0.4-2.3-0.6-4.1-0.6c-2.1,0-3.8,0.5-5.1,1.4c-1.5,1.1-2.2,2.6-2.2,4.5c0,2,0.8,3.5,2.2,4.5c1.2,0.9,2.9,1.3,4.8,1.3h5.9
		c0.8,0,1.4-0.2,1.9-0.7s0.8-1.2,0.8-2v-9.5C127.5,132.9,126.8,131.3,125.5,130.3z M123.3,139.6v4h-3.9c-2.2,0-3.3-0.8-3.3-2.4
		c0-1.5,1.1-2.2,3.4-2.2C121.1,138.9,122.4,139.2,123.3,139.6z M141.7,138c-0.8-0.7-2.2-1.3-4.3-1.9c-1.6-0.5-2.6-0.9-3.1-1.2
		c-0.5-0.3-0.7-0.7-0.7-1.2c0-0.3,0-1.4,2.5-1.4c1.6,0,3,0.5,4,1.4c0.1,0.1,0.2,0.1,0.3,0.1c0.2,0,0.3-0.1,0.4-0.2l0,0l1.8-1.8
		c0.1-0.1,0.3-0.3,0-0.7c-1.3-1.6-3.4-2.5-6.5-2.5c-2,0-3.6,0.4-4.8,1.3c-1.3,0.9-2,2.2-2,3.8s0.6,2.9,1.7,3.9
		c1,0.8,2.6,1.6,4.8,2.2c1.3,0.4,2.2,0.7,2.6,1c0.6,0.3,0.8,0.7,0.8,1.3s-0.3,1-0.8,1.2c-0.6,0.3-1.3,0.5-2.2,0.5
		c-2.1,0-3.8-0.6-5-1.9c-0.1-0.1-0.3-0.2-0.4-0.2s-0.3,0.1-0.4,0.2l-1.9,2.1c0,0,0,0,0,0.1c-0.1,0.3,0,0.5,0.1,0.6
		c1.7,1.8,4.1,2.7,7.4,2.7c2,0,3.7-0.4,5.1-1.3c1.5-1,2.2-2.4,2.2-4.2C143.3,140.3,142.7,139,141.7,138z"/>
</g>
<g>
	<g id="Camada_x0020_1">
		<g id="_1046708848">
			<path class="st0" d="M86.5,57.6c-0.1,0.3-0.3,0.6-0.8,1l0,0l0,0c-0.2-0.3-0.3-0.7-0.4-1.1l0,0l0,0C85.6,57.6,86.3,57.6,86.5,57.6
				z M58.6,60.2c-0.2-0.1-0.4,0.1-0.6,0.2c0,0,0,0,0,0.1c0.2,0.3,0.4,0.6,0.6,0.8c0.1-0.1,0.2-0.5,0.2-0.7v-0.1l0,0
				C58.8,60.3,58.8,60.3,58.6,60.2z M73.7,60.1L73.7,60.1l-1.2-0.2l0,0l0,0v2.9l0,0l1.1,0.2l0,0l0,0l0,0c-0.1-0.3-0.2-0.7-0.2-1
				C73.3,61.3,73.4,60.7,73.7,60.1L73.7,60.1z M79.9,64.2L79.9,64.2l1.7,0.3l0,0v-2.9l0,0l-1.2-0.2l0,0l0,0c0.1,0.2,0.1,0.4,0.1,0.6
				C80.5,62.8,80.3,63.5,79.9,64.2C79.9,64.1,79.9,64.1,79.9,64.2z M76.4,53.4l-0.5,0.7v0.1c0,0,0,0,0.1,0l0.3,0.1l0,0l0.6-0.2
				l1.1,0.2h0.1l0.6-0.4c0,0,0,0,0-0.1v-0.1L76.4,53.4L76.4,53.4z M77.5,53.4c0.1,0,0.1,0,0.1-0.1s0-0.1-0.1-0.1L76.7,53
				c-0.1,0-0.1,0-0.1,0.1s0,0.1,0.1,0.1L77.5,53.4z M86.9,56.1c0.9-0.5,1.5-0.9,1.6-1.6c0-0.2,0-0.3-0.1-0.5v-0.1l0,0
				c-0.3-0.2-0.7-0.3-1-0.4c-0.7-0.2-1.3-0.3-2-0.3c-1,0-1.9,0.3-2.6,0.7V54c0.5,0.9,1.1,1.7,2.2,2.6c0,0,0,0,0.1,0l0,0
				c0.2,0,0.4-0.1,0.6-0.1c0.3,0,0.5,0.1,0.7,0.1v-0.1v-0.1C86.5,56.5,86.7,56.3,86.9,56.1z M76,63l-1.2,0.1c0,0-0.1,0-0.1,0.1
				s0,0.1,0.1,0.1l1.6,0.2c0,0,0.1,0,0.1-0.1v-0.1L76,63L76,63z M77.4,63.2L77.4,63.2L77.4,63.2l-0.3,0.3c0,0,0,0,0,0.1v0.1l1.6,0.3
				c0,0,0.1,0,0.1-0.1v-0.1L77.4,63.2z M67.5,54.6c-0.3,0-0.6,0.1-0.8,0.2c0,0,0,0,0,0.1c0.1,0.3,0.4,0.6,0.6,0.9l0,0
				c0.2-0.1,0.6,0,0.6,0H68c0.2-0.3,0.4-0.5,0.5-0.8c0,0,0,0,0-0.1C68.3,54.7,67.9,54.6,67.5,54.6z M57.1,54.6
				c-0.2,0.1-0.3,0.3-0.3,0.5c0.1,0.2,0.2,0.3,0.4,0.3h0.1c0.6-0.2,1.3-0.3,2.3-0.2c0.1,0,0.2,0,0.3-0.1l4.6-3.7
				c0.2-0.2,0.2-0.4,0.1-0.6c-0.2-0.2-0.4-0.2-0.6-0.1l-4.4,3.6C58.5,54.2,57.7,54.4,57.1,54.6z M67.7,48c0,0.2,0.2,0.3,0.3,0.3
				c0.9,0,1.7,0.2,2.3,0.6c0,0,0.1,0.1,0.2,0.1s0.2-0.1,0.2-0.1c0.1-0.2,0.1-0.3-0.1-0.4c-0.7-0.5-1.7-0.7-2.7-0.7
				C67.8,47.7,67.7,47.8,67.7,48z M60.1,56.6c-0.3-0.1-0.8-0.1-1.2-0.1c-1.3,0-2.4,0.4-2.9,1c0.5,0.8,2,1.7,2,1.7
				c0.2-0.1,0.4-0.1,0.6-0.1s0.5,0.1,0.6,0.1C59.6,58.4,60.1,57.4,60.1,56.6z M72.7,45.6c0,0.1,0.1,0.3,0,0.4c0,0,0,0.1,0.1,0.1
				l0.4,0.1l0,0h0.1l0.6-1.1l0.6,0.1l0,0c0,0,0.1,0,0.1-0.1c0,0,0-0.1-0.1-0.1l-4.1-1.1c0,0-0.1,0-0.1,0.1s0,0.1,0.1,0.1l1.2,0.3
				C72.1,44.7,72.5,45.1,72.7,45.6z M71.4,43.7C71.3,43.7,71.3,43.7,71.4,43.7l-1.1-0.3c-0.1,0-0.1,0.1-0.1,0.1c0,0.1,0,0.2,0.1,0.2
				l4.3,1.2l0,0c0.1,0,0.1,0,0.2-0.1c0-0.1,0-0.2-0.1-0.2l-1-0.3c0-0.2,0-0.4-0.1-0.6c-0.2-0.7-1-1.3-1.7-1.3
				c-0.6,0-0.9,0.4-0.9,0.9l0.3,0.1C71.4,43.4,71.4,43.5,71.4,43.7C71.5,43.6,71.4,43.7,71.4,43.7z M75.3,45.2c-0.1,0-0.1,0-0.1,0.1
				c0,0,0,0.1,0.1,0.1l0.9,0.2c0.6,0.2,0.9,0.7,1.1,1.1c0,0.2,0.1,0.3,0.1,0.5v0.1l0.4,0.1l0,0c0,0,0,0,0.1,0l0.7-1.1l0.6,0.2
				c0.1,0,0.1,0,0.1-0.1c0,0,0-0.1-0.1-0.1L75.3,45.2z M75.9,44.9L75.9,44.9l-0.7-0.2c-0.1,0-0.1,0.1-0.1,0.1c0,0.1,0,0.2,0.1,0.2
				l4.1,1.1l0,0c0.1,0,0.1-0.1,0.1-0.1c0-0.1,0-0.2-0.1-0.2l-1-0.3c0-0.2,0-0.4-0.1-0.6c-0.3-0.8-1-1.3-1.7-1.3
				c-0.6,0-0.9,0.4-0.9,0.9l0.3,0.1C76,44.6,76,44.7,75.9,44.9C76,44.9,75.9,44.9,75.9,44.9z M83.5,47.4l-3.6-1
				c-0.1,0-0.1,0-0.1,0.1s0,0.1,0.1,0.1l0.8,0.2c0.6,0.2,0.9,0.7,1.1,1.2c0,0.2,0.1,0.3,0,0.4c0,0.1,0,0.1,0.1,0.1l0.4,0.1h0.1
				l0.5-1.1l0.5,0.1l0,0C83.4,47.6,83.5,47.6,83.5,47.4C83.6,47.4,83.5,47.4,83.5,47.4z M80.4,46.1L80.4,46.1l-0.7-0.2
				c-0.1,0-0.1,0-0.1,0.1s0,0.2,0.1,0.2l3.8,1l0,0c0.1,0,0.1-0.1,0.1-0.1c0-0.1,0-0.2-0.1-0.2l-0.8-0.2c0-0.2,0-0.4-0.1-0.6
				c-0.2-0.8-1-1.3-1.7-1.3c-0.5,0-0.9,0.4-0.9,0.9l0.3,0.1C80.4,45.8,80.4,45.9,80.4,46.1C80.5,46,80.4,46.1,80.4,46.1z M83,52.6
				c0.1,0,0.1,0,0.2,0c0.4-0.2,0.9-0.3,1.4-0.3c0.2,0,0.4-0.2,0.4-0.4c0-0.2-0.2-0.3-0.4-0.3c-0.6,0-1.1,0.1-1.6,0.4l-11.3-2.6h-0.1
				c-0.1,0-0.3,0.1-0.3,0.3c0,0.2,0.1,0.4,0.3,0.4L83,52.6L83,52.6z"/>
			<path class="st0" d="M56.3,46c0,0.3,0.4,0.4,0.4,0.4l0.6,0.7v0.3c0,0,0,0,0.1,0l0.8-0.7h1.5l0,0l5.7-5l0,0v-1.3l1-0.9l1.6-0.1
				l1.6,0.4l0.4,0.7l0,0l13.3,3.6l0,0l1.9-0.2l1.3,0.4l0.3,0.4l0,0c0.2,0,0.2-0.1,0.2-0.2c0.2-0.1,0.2-0.2,0.2-0.3
				c0.2,0,0.3-0.1,0.3-0.2c0,0,0-0.1,0.1-0.1l-0.4-0.8c0,0,0,0-0.1,0l-1.9-0.6l0,0l-2.1,0.1L71,39.4l-0.8-0.9l0,0l-2.1-0.7l0,0
				l-2.2,0.3l0,0L59.2,44l-2.4,0.2l0,0l-1.2,1.1l0,0C55.7,45.4,56,45.8,56.3,46z M56.6,45.9l0.8-0.8h0.1l1.9-0.2l5.6-4.8
				c0.1,0,0.1,0,0.2,0s0.1,0.1,0,0.1l-5.7,4.9c0,0,0,0-0.1,0l-1.9,0.2L56.6,45.9L56.6,45.9L56.5,46C56.5,46,56.5,46,56.6,45.9z"/>
			<path class="st0" d="M68,36.3l-2.6,0.3l0,0l-2.2,1.9v0.1l0,0l1.1,0.3h0.1l1.4-1.2l2.3-0.3l2.2,0.6l0.9,1.1l0,0l11.9,3.2l0,0
				l2.1-0.1l2,0.6l0.4,0.8l0,0l0.9-0.6v-0.2l-0.5-1l0,0l-2.5-0.7l0,0h-3.2l-10.2-2.7l-1-1.2l0,0L68,36.3L68,36.3z M60.5,49h-0.6
				l-0.7,0.5l0.5,0.4l0,0l0.1-0.1c0.1-0.1,0.3-0.1,0.4-0.1c0.3,0,0.6,0.2,0.7,0.5l0,0l0.1-0.1l0.1-1.4l0,0l0.8-0.7
				c0.1-0.1,0.3-0.1,0.4-0.1c0.3,0,0.6,0.2,0.7,0.5l0.2-0.1l0.1-1.4l0,0l0.8-0.7c0.4-0.2,0.9,0,1,0.4l0.2-0.1v-3.1
				c-0.1,0-0.2,0-0.2,0c-0.3,0.1-0.6,0.6-0.7,1.2c0,0.2,0,0.4,0.1,0.5l0.4,0.3v0.1c0,0.1-0.1,0.1-0.1,0.1h-0.6l-0.7,0.6l-0.3,0.3
				h-0.1c0,0,0,0,0-0.1v-0.1l0.5-0.5c-0.1-0.3-0.3-0.5-0.5-0.5c-0.3,0-0.6,0.6-0.7,1.1c0,0.2,0,0.4,0.1,0.5l0.4,0.3v0.1
				c0,0.1-0.1,0.1-0.1,0.1h-0.6L61.5,48l-0.4,0.3H61v-0.1l0,0c0,0,0,0,0-0.1l0.5-0.4c-0.1-0.3-0.3-0.5-0.5-0.5
				c-0.3,0.1-0.6,0.6-0.7,1.2c0,0.2,0,0.4,0.1,0.5l0.4,0.3C60.6,48.8,60.6,48.9,60.5,49C60.6,48.9,60.5,49,60.5,49z M68.8,54.2
				c0.7-0.5,2.1-1.6,2.3-3v-0.1c-0.6-0.5-1.8-1-3.2-1c-0.9,0-2.2,0.2-3.1,1.4c0,0,0,0,0,0.1c0.3,0.7,0.8,2,1.8,2.7h0.1
				c0.2-0.1,0.5-0.2,0.9-0.2s0.7,0.1,1,0.3l0,0l0,0C68.7,54.3,68.7,54.2,68.8,54.2z M65.3,58.7l-1-0.3l-0.5,0.4h-0.1c0,0,0,0,0-0.1
				v-0.1c0-0.9-0.2-1.7-0.6-2.1c-0.2-0.2-0.5-0.3-0.8-0.2c0,0.3-0.1,0.4-0.1,0.5c-0.1,0.1-0.3,0.2-0.3,0.2l0,0l-0.3-0.1
				c-0.5,0.8-0.9,1.9-0.9,3c0,0.2,0,0.5,0,0.7l0.7-0.1c0.1,0,0.2,0.1,0.2,0.2c0,0.1-0.1,0.2-0.2,0.2h-0.6l-1.2,0.9v0.1v-0.1l1.3,0.7
				H61l0,0c0,0,0.2-0.1,0.5-0.1c0.4,0,0.8,0.2,1.2,0.6c0.1,0.1,0.1,0.1,0.2,0.2l0,0c0.2,0.1,0.5,0.1,0.7,0c0.6-0.4,0.9-1.7,0.7-3
				v-0.1l1.1-0.9v-0.5H65.3z M61.4,63L61.4,63l-0.8,0.5l0,0v3l0,0l0,0l1-0.7l0,0c-0.2-0.5-0.3-1.1-0.3-1.8
				C61.3,63.7,61.3,63.4,61.4,63L61.4,63z"/>
			<path class="st0" d="M64.5,63.8L64.5,63.8l0.5-0.3l0,0v-3l0,0l0,0l-0.5,0.4c0,0,0,0,0,0.1c0.2,0.4,0.2,1,0.2,1.5
				C64.6,62.9,64.5,63.4,64.5,63.8C64.4,63.8,64.4,63.8,64.5,63.8z M62.8,64.7L62.8,64.7l-0.4,0.5l0,0l0,0l0,0l0.5-0.4l0,0l0,0
				L62.8,64.7L62.8,64.7z M63.3,64.4L63.3,64.4l0.1,0.2l0,0l0,0l0.5-0.4l0,0c0,0,0,0-0.1,0L63.3,64.4L63.3,64.4z M62,55L62,55
				l-1,0.8c0,0,0,0,0,0.1c0,0.1,0,0,0.1,0.1l0.5,0.3h0.1l0.6-0.5l0.6,0.1l0,0l0.6-0.3v-0.1c0,0,0-0.1-0.1-0.1L62,55L62,55z
				 M63.1,55.1L63.1,55.1c0.2-0.2,0.2-0.3,0.2-0.5c-0.1-0.1-0.3-0.1-0.5-0.1c-0.1,0-0.2,0-0.4,0.1l-0.3,0.2v0.1V55L63.1,55.1z
				 M60.6,38.2C60.7,38.2,60.7,38.2,60.6,38.2l0.9-0.8l0.7,0.2c0.1,0,0.1,0,0.1-0.1c0-0.1,0-0.1-0.1-0.2l-0.7-0.2
				c-0.1,0-0.1,0-0.1,0l-0.9,0.8C60.5,38,60.5,38.1,60.6,38.2L60.6,38.2z M62.9,36.1l0.8,0.2c0.1,0,0.1,0,0.2-0.1
				c0-0.1,0-0.1-0.1-0.2l-0.9-0.1h-0.1L62,36.6l0.1,0.2L62.9,36.1z M64.4,34.8l0.5,0.1c0.1,0,0.1,0,0.1-0.1s0-0.1-0.1-0.1l-0.6-0.2
				h-0.1l-0.9,0.7l0.2,0.2L64.4,34.8z M65.9,33.4l0.4,0.1c0.1,0,0.1,0,0.1-0.1c0-0.1,0-0.1-0.1-0.2h-0.4h-0.1L64.9,34l0.2,0.1
				L65.9,33.4z M69.2,32.3l0.8,0.2l0.3-0.2l-1-0.3L69.2,32.3L69.2,32.3z M71.4,33.1l0.1-0.2l1.5,0.4l0.2-0.2l-1.7-0.5
				c-0.1,0-0.1,0-0.1,0l-0.2,0.3c0,0.1,0,0.1,0,0.2C71.3,33.1,71.4,33.1,71.4,33.1z M74.3,33.8l0.2-0.2l1.4,0.4l0.2-0.2l-1.6-0.4
				h-0.1l-0.2,0.2C74.1,33.6,74.1,33.7,74.3,33.8C74.2,33.8,74.2,33.9,74.3,33.8z M77.1,34.6l0.2-0.1l1.6,0.4l0.1-0.2l-1.6-0.5h-0.1
				L77,34.4L77.1,34.6C77,34.6,77.1,34.6,77.1,34.6z M80,35.4l0.3-0.2l1.3,0.4l0.2-0.2L80.2,35h-0.1l-0.2,0.2c0,0-0.1,0.1,0,0.1
				C79.9,35.4,80,35.4,80,35.4z M82.7,36l0.2-0.2l0.3,0.1v-0.3l-0.3,0.1h-0.1L82.7,36C82.6,35.9,82.6,36,82.7,36
				C82.6,36.1,82.7,36.1,82.7,36z M86.2,34.9L85,34.5h-0.1l-1.4,0.4c-0.1,0-0.1,0.1-0.1,0.2c0,0.1,0.1,0.1,0.2,0.1l1.3-0.4l1.1,0.4
				l0.3,0.5l0.2-0.2L86.2,34.9C86.2,35,86.2,35,86.2,34.9z M83.4,33.5l1.3-0.4l1.1,0.4l0.3,0.6v-0.2l0.2-0.2l-0.2-0.4
				c0,0,0-0.1-0.1-0.1l-1.2-0.4h-0.1l-1.4,0.4c-0.1,0-0.1,0.1-0.1,0.2C83.2,33.4,83.3,33.5,83.4,33.5z M66.4,30.3l0.4-0.4h1l1.3,0.3
				l0.3,0.6l0.1-0.6L69.4,30c0-0.1-0.1-0.1-0.1-0.1l-1.4-0.4h-1.2c-0.1,0-0.1,0-0.1,0l-0.4,0.4c-0.1,0.1-0.1,0.2,0,0.3
				C66.3,30.3,66.4,30.3,66.4,30.3z M66.6,28.7l0.4-0.4h1l1.3,0.3l0.1,0.1l0,0v-0.4l-1.3-0.4h-1.2c-0.1,0-0.1,0-0.1,0l-0.4,0.4
				c-0.1,0.1-0.1,0.2,0,0.3C66.4,28.7,66.6,28.7,66.6,28.7z M57.9,36.2c0.1,0,0.1,0,0.2-0.1l0.2-0.3h2c0.1,0,0.2-0.1,0.2-0.2
				s-0.1-0.2-0.2-0.2h-2.1c-0.1,0-0.1,0-0.1,0.1l-0.3,0.3C57.7,36,57.7,36.1,57.9,36.2C57.8,36.2,57.8,36.2,57.9,36.2z M57.9,38.1
				c0.1,0,0.1,0,0.2,0l0.2-0.3h2l0,0c0.1,0,0.2-0.1,0.2-0.2c0-0.1-0.1-0.2-0.2-0.2h-2.1c-0.1,0-0.1,0-0.1,0.1l-0.3,0.3
				C57.7,37.9,57.7,38,57.9,38.1C57.8,38.1,57.8,38.1,57.9,38.1z M79.6,59.2L79.6,59.2c-0.1-0.1-0.1-0.1-0.1-0.2
				c0-0.1,0.1-0.2,0.2-0.2l0,0l0.6,0.1c0-0.1,0-0.2,0-0.4c-0.1-1.4-1.1-2.7-2.4-3.2l-0.2,0.5c0,0,0,0-0.1,0l0,0l0,0v-0.1l0,0v-0.1
				c0,0,0-0.1-0.1-0.1l-0.6-0.1c0.1,0,0,0.1,0,0.1s0,0-0.1,0.1c0,0-0.1,0-0.1-0.1l-0.1-0.4c-1.4,0.1-2.5,1.2-2.7,2.6l0.8,0.2
				c0.1,0,0.1,0,0.1,0.1s0.1,0.1,0.1,0.2c0,0.1-0.1,0.1-0.1,0.2l0,0l-2.7-0.5l0.3,1.1l0,0l1.3,0.2c0,0,0,0,0,0.1
				c0.4,1.7,1.8,3,3.3,3c1.2,0,2.1-0.7,2.6-1.9c0,0,0,0,0.1,0l1.7,0.3c0.2-0.3,0.5-0.8,0.6-0.9L79.6,59.2z"/>
		</g>
	</g>
	<path class="st0" d="M116.6,17.3v3.4h-4.3l-0.6,1.5h4.8v3.3h-6l-0.6,1.5h6.6v3.2h-7.8l-0.6,1.5h8.4v3.2H107l-0.6,1.5h10.1v3.2
		h-11.2l-0.6,1.5h11.9v3.2h-13l-0.6,1.5h13.7V49h-14.9l-0.6,1.5h15.4v3.2H100l-0.6,1.5h17.2v2.3c0,0.4,0,0.9,0,1.3H98.3l-0.6,1.6
		h18.8c-0.1,1.1-0.2,2.1-0.3,3.2H96.5l-0.6,1.6h20c-0.2,1.1-0.4,2.1-0.7,3.2H94.8L94.2,70h20.7c-0.3,1.1-0.7,2.1-1.1,3.2H93
		l-0.6,1.6h20.7c-0.5,1.1-1,2.1-1.5,3.2H91.3l-0.6,1.5h20.1c-0.6,1.1-1.3,2.2-2,3.2H89.5l-0.6,1.6h18.8c-0.9,1.1-1.7,2.2-2.7,3.2
		H87.7l-0.6,1.6h16.4c-1.2,1.1-2.3,2.2-3.6,3.2H81.6V65.1l0,0l-9.1-1.7l0,0v28.9H65V65.8h-0.1c-0.2,0-0.3-0.1-0.2-0.3
		c0-0.1,0.1-0.2,0.3-0.3V64l-4.3,3v25.1H44.3c-1.3-1-2.5-2.1-3.6-3.2h18l-0.6-1.6H39.2c-0.9-1-1.8-2.1-2.6-3.2H57l-0.6-1.6H35.5
		c-0.7-1-1.4-2.1-2-3.2h21.7l-0.6-1.6h-22c-0.6-1.1-1.1-2.1-1.5-3.2h22.3l-0.6-1.6H30.4c-0.4-1.1-0.7-2.1-1.1-3.2h22.3L51,68.1H28.9
		c-0.3-1.1-0.5-2.1-0.7-3.2h21.6l-0.6-1.6H27.9c-0.2-1.1-0.3-2.1-0.3-3.2H48l-0.6-1.6H27.5c0-0.4,0-0.9,0-1.3v-1.9h18.8l-0.6-1.5
		H27.5v-3.2h17l-0.6-1.5H27.5v-3.2h15.2l-0.6-1.5H27.4v-3.2h13.5l-0.6-1.5H27.4v-3.2h11.7L38.5,35H27.3v-3.2h10l-0.4-1.5h-9.4V27
		h8.2l-0.5-1.5h-7.6v-3.2H34l-0.6-1.5h-5.9v-3.4c0-1.7-1.4-3.2-3.1-3.2v43.3c0,26.3,21.4,47.7,47.7,47.7s47.6-21.4,47.6-47.7V14.2
		C118,14.2,116.6,15.6,116.6,17.3z"/>
	<path class="st0" d="M80.5,65.7c0.2,0,0.4,0.2,0.4,0.4c0,0.2-0.1,0.4-0.3,0.4s-0.4-0.2-0.4-0.4C80.1,65.9,80.3,65.7,80.5,65.7z"/>
	<path class="st0" d="M74.8,65.5v-0.8l0,0l4.7,0.8l0,0v0.7l0,0c0,0,0,0-0.1,0c-0.1-0.1-0.2-0.2-0.3-0.2c-0.3-0.1-0.6,0-0.9,0.3l0,0
		c0,0.1-0.2,0.2-0.3,0.2c-0.1,0-0.2,0-0.3-0.1s-0.2-0.1-0.2-0.3c-0.1-0.1-0.1-0.3,0-0.4c0.1-0.1,0.2-0.2,0.4-0.2
		c0.1,0,0.1,0,0.2,0.1c0.1,0,0.1,0.1,0.2,0.2c0,0.1,0,0.1,0,0.2c0,0.1-0.1,0.1-0.2,0.1h-0.1h-0.1v0.1l0,0c0.1,0.1,0.2,0.1,0.3,0
		c0.1,0,0.2-0.1,0.2-0.2c0.1-0.1,0.1-0.2,0-0.4c-0.2,0-0.3-0.1-0.4-0.1c-0.1,0-0.2-0.1-0.3-0.1c-0.2,0-0.3,0.1-0.4,0.2l0,0
		c-0.1-0.2-0.3-0.3-0.5-0.3c-0.1,0-0.1,0-0.2,0s-0.2,0.1-0.3,0.2c-0.1,0.1-0.1,0.2,0,0.3c0,0.1,0,0.1,0.1,0.1
		c0.1,0.1,0.3,0.2,0.4,0.1l0,0v-0.1c0,0-0.1-0.1-0.1,0l0,0c-0.1,0-0.2-0.1-0.2-0.2c0-0.1,0-0.1,0-0.2c0,0,0.1,0,0.2,0h0.1
		c0.2,0,0.3,0.1,0.4,0.3c0,0.1,0,0.3-0.1,0.4c-0.1,0.1-0.2,0.2-0.3,0.2s-0.2,0-0.2,0c-0.3,0-0.5-0.2-0.6-0.4l0,0
		c-0.1-0.3-0.3-0.5-0.6-0.5h-0.1C75.1,65.4,75,65.5,74.8,65.5C74.8,65.6,74.8,65.6,74.8,65.5L74.8,65.5z"/>
	<path class="st0" d="M73.7,64.7c0.2,0,0.4,0.1,0.4,0.3s-0.1,0.4-0.3,0.4c-0.2,0-0.4-0.2-0.4-0.4S73.5,64.7,73.7,64.7z"/>
	<path class="st0" d="M61.8,67.2L61.8,67.2l2.6-1.7v0.8c-0.1-0.1-0.2-0.1-0.2,0c0,0,0,0-0.1,0c-0.1-0.1-0.2,0.2-0.3,0.4l0,0
		c0,0.2-0.2,0.4-0.3,0.5h-0.1c-0.1,0-0.1,0-0.1-0.1c0-0.1-0.1-0.2,0-0.3c0-0.1,0.1-0.3,0.2-0.3h0.1c0,0,0.1,0,0.1,0.1v0.1
		c0,0.1,0,0.1-0.1,0.2l0,0c0,0-0.1,0-0.1,0.1v0.1c0,0,0,0,0.1,0s0.2-0.1,0.2-0.2v-0.1c0-0.1,0-0.2,0-0.3s-0.1-0.1-0.2-0.1h-0.1
		c-0.1,0-0.2,0.2-0.3,0.3c-0.1-0.1-0.2-0.1-0.3,0l-0.1,0.1c-0.1,0.1-0.1,0.2-0.1,0.3s0,0.2,0,0.3c0,0.1,0.1,0.1,0.1,0.1l0,0
		c0,0,0.1,0,0.2-0.1l0,0v-0.1c0,0,0,0-0.1,0c0,0,0,0-0.1,0l0,0l0,0c0,0,0-0.1,0-0.2l0.1-0.1l0.1-0.1c0.1,0,0.1,0,0.2,0.1
		c0,0.1,0,0.2,0,0.3c0,0.1-0.3,0.1-0.3,0.1c-0.1,0.1-0.1,0.1-0.2,0.2c-0.1,0-0.2,0-0.2,0c-0.1-0.1-0.4-0.2-0.5,0
		c-0.1,0-0.1,0-0.2,0.1V67.2z"/>
	<path class="st0" d="M61.1,67.7c0.1-0.2,0.2-0.3,0.3-0.3c0.1,0,0.2,0.1,0.2,0.3c-0.1,0.1-0.2,0.2-0.3,0.2
		C61.1,68,61,67.9,61.1,67.7z"/>
	<path class="st0" d="M72.1,102.1c-6.1,0-12-1.3-17.3-3.5h34.5C84,100.8,78.2,102.1,72.1,102.1z"/>
	<path class="st0" d="M92.6,97H51.5c-1.8-1-3.6-2-5.2-3.2h51.6C96.2,95,94.4,96.1,92.6,97z"/>
	<path class="st0" d="M78.3,0c-2.2,0-4.3,0.6-6.2,1.7c-1.9-1.2-4-1.7-6.2-1.7H24.4v3.1h41.5c1.9,0,3.8,0.6,5.3,1.7l1,0.7l0.9-0.7
		c1.5-1.1,3.4-1.7,5.3-1.7h41.5V0H78.3z"/>
	<path class="st0" d="M119.7,5.5H78.3c-3.4,0-6.2,2.8-6.2,6.2c0-3.4-2.8-6.2-6.2-6.2H20.4v5.3h4.1c3.7,0,6.8,2.4,7.9,5.7l26.9,73
		h0.1V64.9c0,0,0.1-2.3-0.8-3.1v-0.4l0,0c-0.2-0.3-0.4-0.6-0.6-0.8c-0.2-0.3-0.2-0.7,0-1.1v-0.2c0,0-1.5-1-2-1.8
		c-0.1-0.1-0.1-0.2-0.2-0.4c-0.1-0.2,0-0.7,0-0.7c0.1-0.2,0.6-0.6,0.6-0.6v-0.1l-0.1-0.1l0,0l0,0c-0.1-0.1-0.2-0.3-0.2-0.4
		c0-0.1,0.1-0.3,0.1-0.5l0.2-0.1l0.3-0.3v-1.1l0.5-0.4V47l-0.6-0.7c0,0-0.4-0.1-0.4-0.4c-0.2-0.2-0.6-0.6-0.8-0.8l0,0V45v-0.5
		l1.2-1.2l0.9-0.9v-0.9l0.3-0.4v-2.9l-0.4-0.4v-0.6l0.2-0.2v-0.7l-0.2-0.4l0.6-0.6c0-0.1,0-0.2,0-0.2c0-0.6,0.6-1.1,1.3-1.1
		s1.3,0.5,1.3,1.1c0,0.1,0,0.2,0,0.2l0,0v0.4l0.6,1v0.5l0.4-0.4l0.7,0.2v-0.3v-0.1l-0.2-0.2l-0.2,0.1l1-0.8l0.8,0.2v-0.4h-0.1
		l-0.2-0.2l-0.1-0.1l1-0.9l0.8,0.2v-0.4l0,0L64.9,34l-0.1-0.1l1-0.9l0.4,0.2v-2.6l-0.3-0.4v-0.5l0.3-0.5v-1l0.2-0.2
		c0-0.1-0.1-0.2-0.1-0.4c0-0.7,0.6-1.2,1.4-1.2c0.8,0,1.4,0.6,1.4,1.2c0,0.1,0,0.3-0.1,0.4l0.3,0.1v0.7l0,0v0.1v0.3l0.2,0.1v0.6v0.3
		l-0.1,0.6V31h-0.1v0.8l1,0.3v0.2L70,32.5v1.4l1.2,0.3V33L71,32.9l0.4-0.5l1.9,0.5V33l-0.1,0.1L73,33.3v1.4l1.1,0.3v-1.1L74,33.7
		v-0.2l0.5-0.4l1.8,0.5v0.1l-0.1,0.2L75.9,34v0.1v1.4l1.1,0.3v-1.1l-0.2-0.2v-0.2l0.5-0.4l1.8,0.5v0.1v0.1L79,34.8l-0.2,0.3v1.2
		l1,0.3v-0.9l-0.2-0.3v-0.3l0.6-0.4l1.7,0.5v0.2l0,0l-0.2,0.2l0,0V37l1,0.3v-1l-0.2-0.2V36l0.5-0.5l0.3,0.1v-0.7l-0.1-0.2l-0.1-0.4
		l0.1-0.2l-0.1-0.8l0.2-0.3c0,0,0.2,0,0.3-0.1c0-0.1,0-0.2,0-0.3c0-0.6,0.6-1.1,1.3-1.1c0.7,0,1.3,0.5,1.3,1.1c0,0.1,0,0.2,0,0.3
		l0.2,0.6l-0.1,0.1l-0.2,0.2V34l0.5,0.6v0.5l-0.2,0.2l-0.2,0.2L86,35.7v2.4l0.5,0.7v0.7l1.4,1.6l0.5,1.2V43l-0.8,0.6l0,0v0.1
		c0,0,0,0.1,0,0.2V44c-0.1,0.1-0.2,0.1-0.3,0.2c0,0.1,0,0.2-0.2,0.3c0,0.1-0.1,0.2-0.2,0.2l0,0v5l0.2,0.1l0.3,0.7v0.7
		c0,0,0.9,2.2,1,2.4c0,0.1,0.1,0.2,0.1,0.3l0,0V54v0.3c0,0.1,0,0.2,0,0.3c-0.1,0.8-0.7,1.1-1.6,1.6c-0.2,0.2-0.4,0.3-0.5,0.5v0.1
		c0.1,0.1,0.2,0.4,0,0.8c0,0,0,0,0,0.1c-0.1,0.3-0.3,0.6-0.7,1l0,0l0,0c-0.4,0.5-0.9,1.8-0.9,3.9v26.9l0,0l27-73
		c1.1-3.3,4.2-5.7,8-5.7h4.1V5.5H119.7z"/>
</g>
<g>
	<path class="st0" d="M22.7,116.1c-0.6,0-1,0.5-1,1.2v5c0,1.1-1,2.1-2,2.1h-0.4c-1,0-2-1-2-2.1v-5c0-0.7-0.4-1.2-1-1.2
		c-0.4,0-0.7,0.3-0.7,0.7c0,0.2,0.1,0.5,0.3,0.6v4.9c0,1.8,1.6,3.4,3.4,3.4h0.4c1.8,0,3.4-1.6,3.4-3.4v-4.9c0.2-0.1,0.3-0.3,0.3-0.6
		C23.4,116.4,23.1,116.1,22.7,116.1z"/>
	<path class="st0" d="M32.5,116.8c0-0.4-0.3-0.7-0.7-0.7c-0.6,0-1,0.5-1,1.2v5.5l-4.7-6.1c-0.1-0.2-0.4-0.5-0.9-0.5
		c-0.4,0-0.7,0.3-0.7,0.7c0,0.2,0.1,0.5,0.3,0.6v7.1c-0.2,0.1-0.3,0.3-0.3,0.6c0,0.4,0.3,0.7,0.7,0.7c0.6,0,1-0.5,1-1.2v-5.3v-0.2
		l4.8,6.2c0.2,0.3,0.5,0.4,0.8,0.4c0.4,0,0.7-0.3,0.7-0.7c0-0.2-0.1-0.5-0.3-0.6v-7.1C32.4,117.2,32.5,117,32.5,116.8z"/>
	<path class="st0" d="M34.8,116.1c-0.4,0-0.7,0.3-0.7,0.7v8.2c0,0.4,0.3,0.7,0.7,0.7s0.7-0.3,0.7-0.7v-8.2
		C35.5,116.4,35.2,116.1,34.8,116.1z"/>
	<path class="st0" d="M44.5,116.1c-0.4,0-0.8,0.3-1,0.7l-2.4,6.2l-0.1,0.2l-2.4-6.4c-0.2-0.4-0.5-0.7-1-0.7s-0.7,0.3-0.7,0.7
		c0,0.3,0.2,0.6,0.5,0.6l3,7.7c0.1,0.3,0.3,0.5,0.7,0.5c0.3,0,0.6-0.2,0.6-0.5l3-7.7c0.3-0.1,0.5-0.3,0.5-0.7
		C45.2,116.4,44.9,116.1,44.5,116.1z"/>
	<path class="st0" d="M52.7,124.3h-4.8v-2.7h3.8c0.4,0,0.7-0.3,0.7-0.7c0-0.4-0.3-0.7-0.7-0.7h-3.8v-2.9h4.5c0.4,0,0.7-0.3,0.7-0.7
		c0-0.4-0.3-0.7-0.7-0.7h-5.5c-0.4,0-0.7,0.3-0.7,0.7c0,0.2,0.1,0.5,0.3,0.6v7.1c-0.2,0.1-0.3,0.3-0.3,0.6c0,0.4,0.3,0.7,0.7,0.7
		h5.8c0.4,0,0.7-0.3,0.7-0.7C53.3,124.6,53,124.3,52.7,124.3z"/>
	<path class="st0" d="M61.1,124.3l-1.6-2.8c1-0.4,1.7-1.5,1.7-2.6c0-1.5-1.3-2.8-2.8-2.8h-3.5c-0.4,0-0.7,0.3-0.7,0.7
		c0,0.2,0.1,0.5,0.3,0.6v7.1c-0.2,0.1-0.3,0.3-0.3,0.6c0,0.4,0.3,0.7,0.7,0.7c0.6,0,1-0.5,1-1.2v-2.8H58l1.9,3.3
		c0.2,0.4,0.6,0.6,1,0.6c0.4,0,0.8-0.3,0.8-0.7C61.8,124.6,61.5,124.3,61.1,124.3z"/>
	<path class="st1" d="M59.9,118.9c0,0.8-0.7,1.4-1.5,1.4h-2.5v-2.9h2.5C59.2,117.4,59.9,118.1,59.9,118.9z"/>
	<path class="st0" d="M66,120.3c-1.3-0.4-2.1-0.9-2.1-1.6c0-0.9,1-1.3,1.9-1.3c0.6,0,1.2,0.2,1.6,0.6c0.1,0.1,0.3,0.2,0.4,0.2
		c0.4,0,0.7-0.3,0.7-0.7c0-0.2-0.1-0.4-0.3-0.6c-0.7-0.6-1.6-0.9-2.5-0.9c-1.5,0-3.2,0.9-3.2,2.6s1.6,2.4,2.9,2.8
		c1.3,0.4,2.2,0.8,2.2,1.7c0,0.8-1,1.2-2.1,1.2c-0.7,0-1.4-0.2-1.8-0.5c-0.1-0.1-0.3-0.2-0.5-0.2c-0.4,0-0.7,0.3-0.7,0.7
		c0,0.2,0.1,0.4,0.3,0.6c0.8,0.5,1.8,0.8,2.7,0.8c1.6,0,3.4-0.8,3.4-2.6C69,121.3,67.2,120.7,66,120.3z"/>
	<path class="st0" d="M70.8,116.1c-0.4,0-0.7,0.3-0.7,0.7v8.2c0,0.4,0.3,0.7,0.7,0.7c0.4,0,0.7-0.3,0.7-0.7v-8.2
		C71.4,116.4,71.1,116.1,70.8,116.1z"/>
	<path class="st0" d="M76.9,116.1h-3.1c-0.4,0-0.7,0.3-0.7,0.7c0,0.2,0.1,0.5,0.3,0.6v7.1c-0.2,0.1-0.3,0.3-0.3,0.6
		c0,0.4,0.3,0.7,0.7,0.7h3.1c2.8,0,4.2-2.5,4.2-4.8C81.1,118.6,79.6,116.1,76.9,116.1z"/>
	<path class="st1" d="M79.8,120.9c0,1.7-1,3.4-2.9,3.4h-2.2v-6.9h2.2C78.8,117.5,79.8,119.2,79.8,120.9z"/>
	<path class="st0" d="M89,124.3l-2.9-7.8c-0.1-0.3-0.4-0.5-0.7-0.5c-0.3,0-0.6,0.2-0.7,0.5l-2.9,7.8c-0.3,0.1-0.5,0.3-0.5,0.7
		c0,0.4,0.3,0.7,0.7,0.7c0.5,0,0.9-0.4,1-0.8l0.6-1.7h3.5l0.6,1.7c0.2,0.4,0.5,0.8,1,0.8c0.4,0,0.7-0.3,0.7-0.7
		C89.5,124.7,89.3,124.4,89,124.3z"/>
	<polygon class="st1" points="86.7,121.8 84.1,121.8 85.3,118.7 85.4,118.4 	"/>
	<path class="st0" d="M94.1,116.1H91c-0.4,0-0.7,0.3-0.7,0.7c0,0.2,0.1,0.5,0.3,0.6v7.1c-0.2,0.1-0.3,0.3-0.3,0.6
		c0,0.4,0.3,0.7,0.7,0.7h3.1c2.8,0,4.2-2.5,4.2-4.8C98.4,118.6,96.9,116.1,94.1,116.1z"/>
	<path class="st1" d="M97,120.9c0,1.7-1,3.4-2.9,3.4H92v-6.9h2.1C96,117.5,97,119.2,97,120.9z"/>
	<path class="st0" d="M105.9,124.3h-4.8v-2.7h3.8c0.4,0,0.7-0.3,0.7-0.7c0-0.4-0.3-0.7-0.7-0.7h-3.8v-2.9h4.5c0.4,0,0.7-0.3,0.7-0.7
		c0-0.4-0.3-0.7-0.7-0.7h-5.5c-0.4,0-0.7,0.3-0.7,0.7c0,0.2,0.1,0.5,0.3,0.6v7.1c-0.2,0.1-0.3,0.3-0.3,0.6c0,0.4,0.3,0.7,0.7,0.7
		h5.8c0.4,0,0.7-0.3,0.7-0.7C106.6,124.6,106.3,124.3,105.9,124.3z"/>
	<path class="st0" d="M115.6,116.1h-3.1c-0.4,0-0.7,0.3-0.7,0.7c0,0.2,0.1,0.5,0.3,0.6v7.1c-0.2,0.1-0.3,0.3-0.3,0.6
		c0,0.4,0.3,0.7,0.7,0.7h3.1c2.7,0,4.2-2.5,4.2-4.8C119.9,118.6,118.4,116.1,115.6,116.1z"/>
	<path class="st1" d="M118.5,120.9c0,1.7-1,3.4-2.9,3.4h-2.1v-6.9h2.1C117.5,117.5,118.5,119.2,118.5,120.9z"/>
	<path class="st0" d="M127.4,124.3h-4.8v-2.7h3.8c0.4,0,0.7-0.3,0.7-0.7c0-0.4-0.3-0.7-0.7-0.7h-3.8v-2.9h4.5c0.4,0,0.7-0.3,0.7-0.7
		c0-0.4-0.3-0.7-0.7-0.7h-5.5c-0.4,0-0.7,0.3-0.7,0.7c0,0.2,0.1,0.5,0.3,0.6v7.1c-0.2,0.1-0.3,0.3-0.3,0.6c0,0.4,0.3,0.7,0.7,0.7
		h5.8c0.4,0,0.7-0.3,0.7-0.7C128.1,124.6,127.8,124.3,127.4,124.3z"/>
</g>
</svg>
